<svg width="123" height="50" viewBox="0 0 123 50" fill="none" xmlns="http://www.w3.org/2000/svg">
<g filter="url(#filter0_d_3_15888)">
<rect x="2.5" y="1" width="118" height="46" rx="6" fill="white"/>
<path d="M30.9137 21.7717H28.9215C28.8647 21.445 28.7599 21.1555 28.6072 20.9034C28.4545 20.6477 28.2646 20.4311 28.0373 20.2536C27.81 20.076 27.5508 19.9428 27.2596 19.854C26.9719 19.7617 26.6612 19.7156 26.3274 19.7156C25.7344 19.7156 25.2088 19.8647 24.7507 20.163C24.2926 20.4577 23.9339 20.891 23.6747 21.4627C23.4155 22.0309 23.2859 22.7251 23.2859 23.5455C23.2859 24.38 23.4155 25.0831 23.6747 25.6548C23.9375 26.223 24.2962 26.6527 24.7507 26.9439C25.2088 27.2315 25.7326 27.3754 26.3221 27.3754C26.6488 27.3754 26.9542 27.3327 27.2383 27.2475C27.5259 27.1587 27.7834 27.0291 28.0107 26.8587C28.2415 26.6882 28.435 26.4787 28.5913 26.2301C28.7511 25.9815 28.8612 25.6974 28.9215 25.3778L30.9137 25.3885C30.8391 25.907 30.6776 26.3935 30.429 26.848C30.1839 27.3026 29.8626 27.7038 29.4648 28.0518C29.0671 28.3963 28.6019 28.6662 28.0692 28.8615C27.5366 29.0533 26.9453 29.1491 26.2955 29.1491C25.3366 29.1491 24.4808 28.9272 23.728 28.4833C22.9751 28.0394 22.3821 27.3984 21.9489 26.5604C21.5156 25.7223 21.299 24.7173 21.299 23.5455C21.299 22.37 21.5174 21.3651 21.9542 20.5305C22.391 19.6925 22.9858 19.0515 23.7386 18.6076C24.4915 18.1637 25.3438 17.9418 26.2955 17.9418C26.9027 17.9418 27.4673 18.027 27.9893 18.1974C28.5114 18.3679 28.9766 18.6183 29.3849 18.9485C29.7933 19.2752 30.1289 19.6765 30.3917 20.1523C30.658 20.6246 30.832 21.1644 30.9137 21.7717ZM36.2071 29.1598C35.4081 29.1598 34.7156 28.984 34.1297 28.6325C33.5438 28.2809 33.0892 27.7891 32.7661 27.157C32.4465 26.5249 32.2867 25.7862 32.2867 24.9411C32.2867 24.0959 32.4465 23.3555 32.7661 22.7198C33.0892 22.0842 33.5438 21.5906 34.1297 21.239C34.7156 20.8874 35.4081 20.7116 36.2071 20.7116C37.0061 20.7116 37.6986 20.8874 38.2845 21.239C38.8705 21.5906 39.3232 22.0842 39.6428 22.7198C39.966 23.3555 40.1276 24.0959 40.1276 24.9411C40.1276 25.7862 39.966 26.5249 39.6428 27.157C39.3232 27.7891 38.8705 28.2809 38.2845 28.6325C37.6986 28.984 37.0061 29.1598 36.2071 29.1598ZM36.2178 27.6151C36.651 27.6151 37.0132 27.4961 37.3044 27.2582C37.5956 27.0167 37.8122 26.6935 37.9543 26.2887C38.0999 25.8839 38.1727 25.4329 38.1727 24.9357C38.1727 24.435 38.0999 23.9822 37.9543 23.5774C37.8122 23.169 37.5956 22.8441 37.3044 22.6026C37.0132 22.3612 36.651 22.2404 36.2178 22.2404C35.7739 22.2404 35.4046 22.3612 35.1098 22.6026C34.8186 22.8441 34.6002 23.169 34.4546 23.5774C34.3126 23.9822 34.2416 24.435 34.2416 24.9357C34.2416 25.4329 34.3126 25.8839 34.4546 26.2887C34.6002 26.6935 34.8186 27.0167 35.1098 27.2582C35.4046 27.4961 35.7739 27.6151 36.2178 27.6151ZM43.6925 24.206V29H41.7642V20.8182H43.6072V22.2085H43.7031C43.8913 21.7504 44.1914 21.3864 44.6033 21.1165C45.0188 20.8466 45.532 20.7116 46.1428 20.7116C46.7074 20.7116 47.1992 20.8324 47.6183 21.0739C48.0408 21.3153 48.3675 21.6651 48.5984 22.1232C48.8327 22.5813 48.9482 23.1371 48.9446 23.7905V29H47.0163V24.0888C47.0163 23.5419 46.8743 23.114 46.5902 22.805C46.3097 22.4961 45.9208 22.3416 45.4237 22.3416C45.0863 22.3416 44.7862 22.4162 44.5234 22.5653C44.2642 22.7109 44.06 22.9222 43.9109 23.1992C43.7653 23.4762 43.6925 23.8118 43.6925 24.206ZM54.9904 20.8182V22.3097H50.2869V20.8182H54.9904ZM51.4482 18.858H53.3764V26.5391C53.3764 26.7983 53.4155 26.9972 53.4936 27.1357C53.5753 27.2706 53.6818 27.3629 53.8132 27.4126C53.9446 27.4624 54.0902 27.4872 54.25 27.4872C54.3707 27.4872 54.4808 27.4783 54.5803 27.4606C54.6832 27.4428 54.7614 27.4268 54.8146 27.4126L55.1396 28.9201C55.0366 28.9556 54.8892 28.9947 54.6974 29.0373C54.5092 29.0799 54.2784 29.1048 54.005 29.1119C53.522 29.1261 53.087 29.0533 52.6999 28.8935C52.3129 28.7301 52.0057 28.478 51.7784 28.1371C51.5547 27.7962 51.4446 27.37 51.4482 26.8587V18.858ZM58.9575 29.1651C58.439 29.1651 57.972 29.0728 57.5566 28.8881C57.1446 28.6999 56.8179 28.4229 56.5764 28.0572C56.3385 27.6914 56.2195 27.2404 56.2195 26.7042C56.2195 26.2425 56.3048 25.8608 56.4752 25.5589C56.6457 25.2571 56.8783 25.0156 57.173 24.8345C57.4678 24.6534 57.7998 24.5167 58.1691 24.4244C58.542 24.3285 58.9273 24.2592 59.325 24.2166C59.8044 24.1669 60.1933 24.1225 60.4916 24.0835C60.7899 24.0408 61.0065 23.9769 61.1414 23.8917C61.2799 23.8029 61.3492 23.6662 61.3492 23.4815V23.4496C61.3492 23.0483 61.2302 22.7376 60.9923 22.5174C60.7544 22.2972 60.4117 22.1871 59.9642 22.1871C59.4919 22.1871 59.1173 22.2901 58.8403 22.4961C58.5669 22.7021 58.3822 22.9453 58.2863 23.2259L56.4859 22.9702C56.6279 22.473 56.8623 22.0575 57.189 21.7237C57.5157 21.3864 57.9152 21.1342 58.3875 20.9673C58.8598 20.7969 59.3818 20.7116 59.9536 20.7116C60.3477 20.7116 60.7401 20.7578 61.1308 20.8501C61.5214 20.9425 61.8783 21.0952 62.2014 21.3082C62.5246 21.5178 62.7838 21.8036 62.9791 22.1658C63.178 22.5281 63.2774 22.9808 63.2774 23.5241V29H61.4237V27.8761H61.3598C61.2426 28.1033 61.0775 28.3164 60.8644 28.5153C60.6549 28.7106 60.3904 28.8686 60.0708 28.9893C59.7547 29.1065 59.3836 29.1651 58.9575 29.1651ZM59.4582 27.7482C59.8453 27.7482 60.1808 27.6719 60.4649 27.5192C60.749 27.3629 60.9674 27.157 61.1201 26.9013C61.2764 26.6456 61.3545 26.3668 61.3545 26.065V25.1009C61.2941 25.1506 61.1911 25.1967 61.0455 25.2393C60.9035 25.282 60.7437 25.3192 60.5661 25.3512C60.3886 25.3832 60.2128 25.4116 60.0388 25.4364C59.8648 25.4613 59.7139 25.4826 59.586 25.5004C59.2984 25.5394 59.0409 25.6033 58.8137 25.6921C58.5864 25.7809 58.407 25.9052 58.2757 26.065C58.1443 26.2212 58.0786 26.4237 58.0786 26.6722C58.0786 27.0273 58.2082 27.2955 58.4674 27.4766C58.7267 27.6577 59.0569 27.7482 59.4582 27.7482ZM68.7852 29.1598C67.9685 29.1598 67.2671 28.9805 66.6812 28.6218C66.0988 28.2631 65.6496 27.7678 65.3335 27.1357C65.021 26.5 64.8648 25.7685 64.8648 24.9411C64.8648 24.1101 65.0246 23.3768 65.3442 22.7411C65.6638 22.1019 66.1148 21.6048 66.6972 21.2496C67.2831 20.891 67.9756 20.7116 68.7746 20.7116C69.4387 20.7116 70.0264 20.8342 70.5377 21.0792C71.0526 21.3207 71.4628 21.6634 71.7682 22.1072C72.0736 22.5476 72.2476 23.0625 72.2902 23.652H70.4472C70.3726 23.2578 70.195 22.9293 69.9145 22.6665C69.6375 22.4002 69.2664 22.267 68.8012 22.267C68.407 22.267 68.0608 22.3736 67.7625 22.5866C67.4642 22.7962 67.2316 23.098 67.0647 23.4922C66.9014 23.8864 66.8197 24.3587 66.8197 24.9091C66.8197 25.4666 66.9014 25.946 67.0647 26.3473C67.2281 26.745 67.4571 27.0522 67.7519 27.2688C68.0502 27.4819 68.3999 27.5884 68.8012 27.5884C69.0853 27.5884 69.3392 27.5352 69.5629 27.4286C69.7902 27.3185 69.9802 27.1605 70.1329 26.9545C70.2856 26.7486 70.3904 26.4982 70.4472 26.2035H72.2902C72.2441 26.7823 72.0736 27.2955 71.7789 27.7429C71.4841 28.1868 71.0828 28.5348 70.575 28.7869C70.0672 29.0355 69.4706 29.1598 68.7852 29.1598ZM77.9592 20.8182V22.3097H73.2557V20.8182H77.9592ZM74.4169 18.858H76.3452V26.5391C76.3452 26.7983 76.3842 26.9972 76.4624 27.1357C76.544 27.2706 76.6506 27.3629 76.782 27.4126C76.9134 27.4624 77.0589 27.4872 77.2188 27.4872C77.3395 27.4872 77.4496 27.4783 77.549 27.4606C77.652 27.4428 77.7301 27.4268 77.7834 27.4126L78.1083 28.9201C78.0053 28.9556 77.858 28.9947 77.6662 29.0373C77.478 29.0799 77.2472 29.1048 76.9737 29.1119C76.4908 29.1261 76.0558 29.0533 75.6687 28.8935C75.2816 28.7301 74.9744 28.478 74.7472 28.1371C74.5234 27.7962 74.4134 27.37 74.4169 26.8587V18.858ZM90.2545 18.0909H92.2307V25.218C92.2307 25.9993 92.0461 26.6864 91.6768 27.2795C91.311 27.8725 90.7961 28.3359 90.132 28.6697C89.468 29 88.692 29.1651 87.8042 29.1651C86.9129 29.1651 86.1352 29 85.4711 28.6697C84.8071 28.3359 84.2922 27.8725 83.9264 27.2795C83.5606 26.6864 83.3778 25.9993 83.3778 25.218V18.0909H85.354V25.0529C85.354 25.5075 85.4534 25.9123 85.6523 26.2674C85.8547 26.6225 86.1388 26.9013 86.5045 27.1037C86.8703 27.3026 87.3035 27.402 87.8042 27.402C88.305 27.402 88.7382 27.3026 89.104 27.1037C89.4733 26.9013 89.7574 26.6225 89.9562 26.2674C90.1551 25.9123 90.2545 25.5075 90.2545 25.0529V18.0909ZM100.76 22.9808L99.0023 23.1726C98.9526 22.995 98.8656 22.8281 98.7413 22.6719C98.6206 22.5156 98.4572 22.3896 98.2512 22.2937C98.0453 22.1978 97.7931 22.1499 97.4949 22.1499C97.0936 22.1499 96.7562 22.2369 96.4828 22.4109C96.2129 22.5849 96.0797 22.8104 96.0833 23.0874C96.0797 23.3253 96.1667 23.5188 96.3443 23.668C96.5254 23.8171 96.8237 23.9396 97.2392 24.0355L98.6348 24.3338C99.4089 24.5007 99.9842 24.7653 100.361 25.1275C100.741 25.4897 100.932 25.9638 100.936 26.5497C100.932 27.0646 100.781 27.5192 100.483 27.9134C100.188 28.304 99.7782 28.6094 99.2527 28.8295C98.7271 29.0497 98.1234 29.1598 97.4416 29.1598C96.4402 29.1598 95.6341 28.9503 95.0233 28.5312C94.4125 28.1087 94.0485 27.521 93.9313 26.7681L95.8116 26.587C95.8968 26.9563 96.0779 27.2351 96.3549 27.4233C96.6319 27.6115 96.9924 27.7056 97.4363 27.7056C97.8944 27.7056 98.2619 27.6115 98.5389 27.4233C98.8194 27.2351 98.9597 27.0025 98.9597 26.7255C98.9597 26.4911 98.8691 26.2976 98.688 26.1449C98.5105 25.9922 98.2335 25.875 97.8571 25.7933L96.4615 25.5004C95.6767 25.337 95.0961 25.0618 94.7196 24.6747C94.3432 24.2841 94.1568 23.7905 94.1603 23.1939C94.1568 22.6896 94.2935 22.2528 94.5705 21.8835C94.851 21.5107 95.2399 21.223 95.737 21.0206C96.2377 20.8146 96.8148 20.7116 97.4682 20.7116C98.427 20.7116 99.1816 20.9158 99.7321 21.3242C100.286 21.7326 100.629 22.2848 100.76 22.9808Z" fill="#272D37"/>
<rect x="3" y="1.5" width="117" height="45" rx="5.5" stroke="#DAE0E6"/>
</g>
<defs>
<filter id="filter0_d_3_15888" x="0.5" y="0" width="122" height="50" filterUnits="userSpaceOnUse" color-interpolation-filters="sRGB">
<feFlood flood-opacity="0" result="BackgroundImageFix"/>
<feColorMatrix in="SourceAlpha" type="matrix" values="0 0 0 0 0 0 0 0 0 0 0 0 0 0 0 0 0 0 127 0" result="hardAlpha"/>
<feOffset dy="1"/>
<feGaussianBlur stdDeviation="1"/>
<feComposite in2="hardAlpha" operator="out"/>
<feColorMatrix type="matrix" values="0 0 0 0 0.0627451 0 0 0 0 0.0941176 0 0 0 0 0.156863 0 0 0 0.04 0"/>
<feBlend mode="normal" in2="BackgroundImageFix" result="effect1_dropShadow_3_15888"/>
<feBlend mode="normal" in="SourceGraphic" in2="effect1_dropShadow_3_15888" result="shape"/>
</filter>
</defs>
</svg>
