<svg width="126" height="50" viewBox="0 0 126 50" fill="none" xmlns="http://www.w3.org/2000/svg">
<g filter="url(#filter0_d_3_15887)">
<rect x="2.5" y="1" width="121" height="46" rx="6" fill="#437EF7"/>
<path d="M28.8842 21.5746C28.7955 21.2869 28.6729 21.0295 28.5167 20.8022C28.364 20.5714 28.1793 20.3743 27.9627 20.2109C27.7496 20.0476 27.5046 19.9251 27.2276 19.8434C26.9506 19.7582 26.6488 19.7156 26.3221 19.7156C25.7362 19.7156 25.2141 19.8629 24.756 20.1577C24.2979 20.4524 23.9375 20.8857 23.6747 21.4574C23.4155 22.0256 23.2859 22.718 23.2859 23.5348C23.2859 24.3587 23.4155 25.0565 23.6747 25.6282C23.9339 26.1999 24.2944 26.6349 24.756 26.9332C25.2177 27.228 25.7539 27.3754 26.3647 27.3754C26.9187 27.3754 27.3981 27.2688 27.8029 27.0558C28.2113 26.8427 28.5256 26.5408 28.7457 26.1502C28.9659 25.756 29.076 25.2944 29.076 24.7653L29.5234 24.8345H26.5618V23.2898H30.9883V24.6001C30.9883 25.5341 30.7894 26.342 30.3917 27.0238C29.994 27.7056 29.4471 28.2312 28.7511 28.6005C28.055 28.9663 27.256 29.1491 26.354 29.1491C25.3491 29.1491 24.4666 28.9237 23.7067 28.4727C22.9503 28.0181 22.359 27.3736 21.9329 26.5391C21.5103 25.701 21.299 24.7067 21.299 23.5561C21.299 22.6754 21.4233 21.8888 21.6719 21.1964C21.924 20.5039 22.2756 19.9162 22.7266 19.4332C23.1776 18.9467 23.7067 18.5774 24.3139 18.3253C24.9212 18.0696 25.5817 17.9418 26.2955 17.9418C26.8991 17.9418 27.462 18.0305 27.984 18.2081C28.506 18.3821 28.9695 18.6307 29.3743 18.9538C29.7827 19.277 30.1183 19.6605 30.381 20.1044C30.6438 20.5483 30.8161 21.0384 30.8977 21.5746H28.8842ZM36.4362 29.1598C35.6159 29.1598 34.9074 28.9893 34.3108 28.6484C33.7178 28.304 33.2615 27.8175 32.9419 27.1889C32.6222 26.5568 32.4624 25.8129 32.4624 24.957C32.4624 24.1154 32.6222 23.3768 32.9419 22.7411C33.265 22.1019 33.716 21.6048 34.2948 21.2496C34.8737 20.891 35.5537 20.7116 36.335 20.7116C36.8392 20.7116 37.3151 20.7933 37.7625 20.9567C38.2135 21.1165 38.6112 21.3651 38.9557 21.7024C39.3037 22.0398 39.5771 22.4695 39.776 22.9915C39.9749 23.5099 40.0743 24.1278 40.0743 24.8452V25.4364H33.368V24.1367H38.2259C38.2224 23.7674 38.1425 23.4389 37.9862 23.1513C37.83 22.8601 37.6116 22.631 37.3311 22.4641C37.0541 22.2972 36.7309 22.2138 36.3616 22.2138C35.9674 22.2138 35.6212 22.3097 35.3229 22.5014C35.0246 22.6896 34.792 22.9382 34.6251 23.2472C34.4617 23.5526 34.3783 23.8881 34.3747 24.2539V25.3885C34.3747 25.8643 34.4617 26.2727 34.6357 26.6136C34.8097 26.951 35.053 27.2102 35.3655 27.3913C35.678 27.5689 36.0438 27.6577 36.4628 27.6577C36.7433 27.6577 36.9972 27.6186 37.2245 27.5405C37.4518 27.4588 37.6489 27.3398 37.8158 27.1836C37.9827 27.0273 38.1088 26.8338 38.194 26.603L39.9944 26.8054C39.8808 27.2812 39.6642 27.6967 39.3445 28.0518C39.0285 28.4034 38.6237 28.6768 38.1301 28.8722C37.6365 29.0639 37.0718 29.1598 36.4362 29.1598ZM45.7912 20.8182V22.3097H41.0877V20.8182H45.7912ZM42.2489 18.858H44.1772V26.5391C44.1772 26.7983 44.2163 26.9972 44.2944 27.1357C44.3761 27.2706 44.4826 27.3629 44.614 27.4126C44.7454 27.4624 44.891 27.4872 45.0508 27.4872C45.1715 27.4872 45.2816 27.4783 45.381 27.4606C45.484 27.4428 45.5621 27.4268 45.6154 27.4126L45.9403 28.9201C45.8374 28.9556 45.69 28.9947 45.4982 29.0373C45.31 29.0799 45.0792 29.1048 44.8058 29.1119C44.3228 29.1261 43.8878 29.0533 43.5007 28.8935C43.1136 28.7301 42.8065 28.478 42.5792 28.1371C42.3555 27.7962 42.2454 27.37 42.2489 26.8587V18.858ZM57.1384 21.0898C57.0887 20.6246 56.8792 20.2624 56.5099 20.0032C56.1441 19.744 55.6682 19.6143 55.0823 19.6143C54.6704 19.6143 54.317 19.6765 54.0223 19.8008C53.7275 19.9251 53.502 20.0937 53.3458 20.3068C53.1895 20.5199 53.1096 20.7631 53.1061 21.0366C53.1061 21.2638 53.1576 21.4609 53.2606 21.6278C53.3671 21.7947 53.5109 21.9368 53.692 22.054C53.8731 22.1676 54.0738 22.2635 54.2939 22.3416C54.5141 22.4197 54.7361 22.4854 54.9598 22.5387L55.9825 22.7944C56.3944 22.8903 56.7904 23.0199 57.1704 23.1832C57.5539 23.3466 57.8966 23.5526 58.1984 23.8011C58.5038 24.0497 58.7453 24.3498 58.9229 24.7013C59.1004 25.0529 59.1892 25.4648 59.1892 25.9371C59.1892 26.5763 59.0258 27.1392 58.6991 27.6257C58.3724 28.1087 57.9001 28.4869 57.2822 28.7603C56.6679 29.0302 55.9239 29.1651 55.0503 29.1651C54.2016 29.1651 53.4648 29.0337 52.8398 28.771C52.2183 28.5082 51.7318 28.1246 51.3802 27.6204C51.0322 27.1161 50.844 26.5018 50.8156 25.7773H52.7599C52.7883 26.1573 52.9055 26.4734 53.1114 26.7255C53.3174 26.9776 53.5855 27.1658 53.9157 27.2901C54.2496 27.4144 54.6224 27.4766 55.0344 27.4766C55.464 27.4766 55.8405 27.4126 56.1636 27.2848C56.4903 27.1534 56.746 26.9723 56.9307 26.7415C57.1153 26.5071 57.2094 26.2337 57.213 25.9212C57.2094 25.6371 57.126 25.4027 56.9626 25.218C56.7993 25.0298 56.5702 24.8736 56.2755 24.7493C55.9843 24.6214 55.6434 24.5078 55.2528 24.4084L54.0116 24.0888C53.1132 23.858 52.403 23.5082 51.8809 23.0394C51.3625 22.5671 51.1032 21.9403 51.1032 21.1591C51.1032 20.5163 51.2773 19.9535 51.6253 19.4705C51.9768 18.9876 52.4545 18.6129 53.0581 18.3466C53.6618 18.0767 54.3454 17.9418 55.1089 17.9418C55.8831 17.9418 56.5613 18.0767 57.1437 18.3466C57.7297 18.6129 58.1895 18.984 58.5233 19.4599C58.8572 19.9322 59.0294 20.4755 59.04 21.0898H57.1384ZM64.9513 20.8182V22.3097H60.2479V20.8182H64.9513ZM61.4091 18.858H63.3374V26.5391C63.3374 26.7983 63.3764 26.9972 63.4545 27.1357C63.5362 27.2706 63.6428 27.3629 63.7741 27.4126C63.9055 27.4624 64.0511 27.4872 64.2109 27.4872C64.3317 27.4872 64.4418 27.4783 64.5412 27.4606C64.6442 27.4428 64.7223 27.4268 64.7756 27.4126L65.1005 28.9201C64.9975 28.9556 64.8501 28.9947 64.6584 29.0373C64.4702 29.0799 64.2393 29.1048 63.9659 29.1119C63.483 29.1261 63.0479 29.0533 62.6609 28.8935C62.2738 28.7301 61.9666 28.478 61.7393 28.1371C61.5156 27.7962 61.4055 27.37 61.4091 26.8587V18.858ZM68.9184 29.1651C68.3999 29.1651 67.933 29.0728 67.5175 28.8881C67.1056 28.6999 66.7789 28.4229 66.5374 28.0572C66.2994 27.6914 66.1805 27.2404 66.1805 26.7042C66.1805 26.2425 66.2657 25.8608 66.4362 25.5589C66.6066 25.2571 66.8392 25.0156 67.134 24.8345C67.4287 24.6534 67.7607 24.5167 68.1301 24.4244C68.5029 24.3285 68.8882 24.2592 69.286 24.2166C69.7654 24.1669 70.1542 24.1225 70.4525 24.0835C70.7508 24.0408 70.9674 23.9769 71.1024 23.8917C71.2409 23.8029 71.3101 23.6662 71.3101 23.4815V23.4496C71.3101 23.0483 71.1911 22.7376 70.9532 22.5174C70.7153 22.2972 70.3726 22.1871 69.9252 22.1871C69.4529 22.1871 69.0782 22.2901 68.8012 22.4961C68.5278 22.7021 68.3431 22.9453 68.2472 23.2259L66.4468 22.9702C66.5889 22.473 66.8232 22.0575 67.1499 21.7237C67.4767 21.3864 67.8762 21.1342 68.3485 20.9673C68.8208 20.7969 69.3428 20.7116 69.9145 20.7116C70.3087 20.7116 70.7011 20.7578 71.0917 20.8501C71.4823 20.9425 71.8392 21.0952 72.1624 21.3082C72.4855 21.5178 72.7448 21.8036 72.9401 22.1658C73.1389 22.5281 73.2384 22.9808 73.2384 23.5241V29H71.3847V27.8761H71.3208C71.2036 28.1033 71.0384 28.3164 70.8254 28.5153C70.6159 28.7106 70.3513 28.8686 70.0317 28.9893C69.7156 29.1065 69.3445 29.1651 68.9184 29.1651ZM69.4191 27.7482C69.8062 27.7482 70.1418 27.6719 70.4259 27.5192C70.71 27.3629 70.9284 27.157 71.0811 26.9013C71.2373 26.6456 71.3154 26.3668 71.3154 26.065V25.1009C71.2551 25.1506 71.1521 25.1967 71.0065 25.2393C70.8644 25.282 70.7046 25.3192 70.5271 25.3512C70.3495 25.3832 70.1737 25.4116 69.9997 25.4364C69.8257 25.4613 69.6748 25.4826 69.547 25.5004C69.2593 25.5394 69.0019 25.6033 68.7746 25.6921C68.5473 25.7809 68.368 25.9052 68.2366 26.065C68.1052 26.2212 68.0395 26.4237 68.0395 26.6722C68.0395 27.0273 68.1691 27.2955 68.4284 27.4766C68.6876 27.6577 69.0178 27.7482 69.4191 27.7482ZM75.1773 29V20.8182H77.047V22.1818H77.1322C77.2813 21.7095 77.537 21.3455 77.8992 21.0898C78.265 20.8306 78.6823 20.701 79.151 20.701C79.2575 20.701 79.3765 20.7063 79.5079 20.717C79.6428 20.7241 79.7547 20.7365 79.8435 20.7543V22.5281C79.7618 22.4996 79.6322 22.4748 79.4546 22.4535C79.2806 22.4286 79.1119 22.4162 78.9486 22.4162C78.597 22.4162 78.281 22.4925 78.0004 22.6452C77.7235 22.7944 77.5051 23.0021 77.3453 23.2685C77.1855 23.5348 77.1056 23.842 77.1056 24.19V29H75.1773ZM85.6496 20.8182V22.3097H80.9461V20.8182H85.6496ZM82.1073 18.858H84.0356V26.5391C84.0356 26.7983 84.0747 26.9972 84.1528 27.1357C84.2345 27.2706 84.341 27.3629 84.4724 27.4126C84.6038 27.4624 84.7494 27.4872 84.9092 27.4872C85.0299 27.4872 85.14 27.4783 85.2394 27.4606C85.3424 27.4428 85.4205 27.4268 85.4738 27.4126L85.7987 28.9201C85.6958 28.9556 85.5484 28.9947 85.3566 29.0373C85.1684 29.0799 84.9376 29.1048 84.6642 29.1119C84.1812 29.1261 83.7462 29.0533 83.3591 28.8935C82.972 28.7301 82.6649 28.478 82.4376 28.1371C82.2139 27.7962 82.1038 27.37 82.1073 26.8587V18.858ZM90.7965 29.1598C89.9762 29.1598 89.2678 28.9893 88.6712 28.6484C88.0781 28.304 87.6218 27.8175 87.3022 27.1889C86.9826 26.5568 86.8228 25.8129 86.8228 24.957C86.8228 24.1154 86.9826 23.3768 87.3022 22.7411C87.6254 22.1019 88.0763 21.6048 88.6552 21.2496C89.234 20.891 89.9141 20.7116 90.6953 20.7116C91.1996 20.7116 91.6754 20.7933 92.1229 20.9567C92.5739 21.1165 92.9716 21.3651 93.3161 21.7024C93.6641 22.0398 93.9375 22.4695 94.1364 22.9915C94.3352 23.5099 94.4347 24.1278 94.4347 24.8452V25.4364H87.7283V24.1367H92.5863C92.5827 23.7674 92.5028 23.4389 92.3466 23.1513C92.1903 22.8601 91.9719 22.631 91.6914 22.4641C91.4144 22.2972 91.0913 22.2138 90.7219 22.2138C90.3278 22.2138 89.9815 22.3097 89.6832 22.5014C89.3849 22.6896 89.1523 22.9382 88.9854 23.2472C88.8221 23.5526 88.7386 23.8881 88.7351 24.2539V25.3885C88.7351 25.8643 88.8221 26.2727 88.9961 26.6136C89.1701 26.951 89.4134 27.2102 89.7259 27.3913C90.0384 27.5689 90.4041 27.6577 90.8232 27.6577C91.1037 27.6577 91.3576 27.6186 91.5849 27.5405C91.8121 27.4588 92.0092 27.3398 92.1761 27.1836C92.343 27.0273 92.4691 26.8338 92.5543 26.603L94.3548 26.8054C94.2411 27.2812 94.0245 27.6967 93.7049 28.0518C93.3888 28.4034 92.984 28.6768 92.4904 28.8722C91.9968 29.0639 91.4322 29.1598 90.7965 29.1598ZM99.1022 29.1438C98.4594 29.1438 97.8841 28.9787 97.3763 28.6484C96.8685 28.3182 96.4672 27.8388 96.1725 27.2102C95.8778 26.5817 95.7304 25.8182 95.7304 24.9197C95.7304 24.0107 95.8795 23.2436 96.1778 22.6186C96.4797 21.9901 96.8863 21.516 97.3976 21.1964C97.909 20.8732 98.479 20.7116 99.1075 20.7116C99.5869 20.7116 99.9811 20.7933 100.29 20.9567C100.599 21.1165 100.844 21.31 101.025 21.5373C101.206 21.761 101.347 21.9723 101.446 22.1712H101.526V18.0909H103.459V29H101.563V27.7109H101.446C101.347 27.9098 101.203 28.1211 101.014 28.3448C100.826 28.565 100.578 28.7532 100.269 28.9094C99.9598 29.0657 99.5709 29.1438 99.1022 29.1438ZM99.6402 27.5618C100.049 27.5618 100.397 27.4517 100.684 27.2315C100.972 27.0078 101.19 26.6971 101.339 26.2994C101.489 25.9016 101.563 25.4382 101.563 24.9091C101.563 24.38 101.489 23.9201 101.339 23.5295C101.194 23.1388 100.977 22.8352 100.69 22.6186C100.405 22.402 100.056 22.2937 99.6402 22.2937C99.2105 22.2937 98.8518 22.4055 98.5642 22.6293C98.2765 22.853 98.0599 23.1619 97.9143 23.5561C97.7687 23.9503 97.6959 24.4013 97.6959 24.9091C97.6959 25.4205 97.7687 25.8768 97.9143 26.2781C98.0635 26.6758 98.2819 26.9901 98.5695 27.2209C98.8607 27.4482 99.2176 27.5618 99.6402 27.5618Z" fill="white"/>
</g>
<defs>
<filter id="filter0_d_3_15887" x="0.5" y="0" width="125" height="50" filterUnits="userSpaceOnUse" color-interpolation-filters="sRGB">
<feFlood flood-opacity="0" result="BackgroundImageFix"/>
<feColorMatrix in="SourceAlpha" type="matrix" values="0 0 0 0 0 0 0 0 0 0 0 0 0 0 0 0 0 0 127 0" result="hardAlpha"/>
<feOffset dy="1"/>
<feGaussianBlur stdDeviation="1"/>
<feComposite in2="hardAlpha" operator="out"/>
<feColorMatrix type="matrix" values="0 0 0 0 0.0627451 0 0 0 0 0.0941176 0 0 0 0 0.156863 0 0 0 0.04 0"/>
<feBlend mode="normal" in2="BackgroundImageFix" result="effect1_dropShadow_3_15887"/>
<feBlend mode="normal" in="SourceGraphic" in2="effect1_dropShadow_3_15887" result="shape"/>
</filter>
</defs>
</svg>
