<svg width="48" height="48" viewBox="0 0 48 48" fill="none" xmlns="http://www.w3.org/2000/svg">
<rect width="48" height="48" rx="24" fill="#F5FAFF"/>
<path d="M27.8976 17.4512L25.1477 12.6643C24.6371 11.7755 23.3563 11.7712 22.8398 12.6566L19.938 17.6311C19.5537 18.29 18.9056 18.7527 18.1576 18.9023L14.1926 19.6953C13.1657 19.9007 12.7656 21.1555 13.484 21.9175L16.3518 24.959C16.965 25.6094 17.2116 26.5238 17.0084 27.3943L15.7104 32.9574C15.4436 34.101 16.6784 35.0061 17.6886 34.4074L22.6409 31.4727C23.4791 30.976 24.5216 30.976 25.3598 31.4727L30.3121 34.4074C31.3223 35.0061 32.5571 34.101 32.2903 32.9574L30.9809 27.3456C30.7841 26.5021 31.0092 25.6155 31.5847 24.9681L34.456 21.7378C35.1401 20.9682 34.7307 19.7465 33.721 19.5446L29.6869 18.7378C28.9329 18.587 28.2806 18.118 27.8976 17.4512Z" stroke="#437EF7" stroke-width="2" stroke-miterlimit="10"/>
</svg>
