<svg width="48" height="48" viewBox="0 0 48 48" fill="none" xmlns="http://www.w3.org/2000/svg">
<rect width="48" height="48" rx="24" fill="#F5FAFF"/>
<path d="M24.0002 38.6663C32.1003 38.6663 38.6668 32.0998 38.6668 23.9997C38.6668 15.8995 32.1003 9.33301 24.0002 9.33301M24.0002 38.6663C15.9 38.6663 9.3335 32.0998 9.3335 23.9997C9.3335 15.8995 15.9 9.33301 24.0002 9.33301M24.0002 38.6663C26.9457 38.6663 29.3335 32.0998 29.3335 23.9997C29.3335 15.8995 26.9457 9.33301 24.0002 9.33301M24.0002 38.6663C21.0546 38.6663 18.6668 32.0998 18.6668 23.9997C18.6668 15.8995 21.0546 9.33301 24.0002 9.33301M10.6668 18.6663H37.3335M10.6668 27.9997H37.3335" stroke="#437EF7" stroke-width="2" stroke-linecap="round"/>
</svg>
