<svg width="318" height="28" viewBox="0 0 318 28" fill="none" xmlns="http://www.w3.org/2000/svg">
<path d="M104.943 3.59142L106.87 7.65811C107.186 8.32385 107.795 8.78524 108.501 8.89211L112.81 9.54432C114.587 9.81315 115.296 12.0868 114.01 13.392L110.891 16.557C110.381 17.0753 110.148 17.8221 110.268 18.5539L111.004 23.0235C111.308 24.8664 109.451 26.2714 107.862 25.4016L104.008 23.2925C103.377 22.9468 102.623 22.9468 101.992 23.2925L98.1375 25.403C96.5489 26.2728 94.6914 24.8662 94.9952 23.0249L95.7312 18.5553C95.8522 17.823 95.6191 17.0757 95.1083 16.557L91.9901 13.3916C90.7043 12.0864 91.4138 9.81279 93.1904 9.54397L97.4995 8.89176C98.2051 8.78487 98.8148 8.32344 99.1307 7.65776L101.057 3.59148C101.852 1.91421 104.147 1.91415 104.943 3.59142Z" fill="#FFAE43"/>
<path d="M132.943 3.59142L134.87 7.65811C135.186 8.32385 135.795 8.78524 136.501 8.89211L140.81 9.54432C142.587 9.81315 143.296 12.0868 142.01 13.392L138.891 16.557C138.381 17.0753 138.148 17.8221 138.268 18.5539L139.004 23.0235C139.308 24.8664 137.451 26.2714 135.862 25.4016L132.008 23.2925C131.377 22.9468 130.623 22.9468 129.992 23.2925L126.137 25.403C124.549 26.2728 122.691 24.8662 122.995 23.0249L123.731 18.5553C123.852 17.823 123.619 17.0757 123.108 16.557L119.99 13.3916C118.704 12.0864 119.414 9.81279 121.19 9.54397L125.5 8.89176C126.205 8.78487 126.815 8.32344 127.131 7.65776L129.057 3.59148C129.852 1.91421 132.147 1.91415 132.943 3.59142Z" fill="#FFAE43"/>
<path d="M160.943 3.59142L162.87 7.65811C163.186 8.32385 163.795 8.78524 164.501 8.89211L168.81 9.54432C170.587 9.81315 171.296 12.0868 170.01 13.392L166.891 16.557C166.381 17.0753 166.148 17.8221 166.268 18.5539L167.004 23.0235C167.308 24.8664 165.451 26.2714 163.862 25.4016L160.008 23.2925C159.377 22.9468 158.623 22.9468 157.992 23.2925L154.137 25.403C152.549 26.2728 150.691 24.8662 150.995 23.0249L151.731 18.5553C151.852 17.823 151.619 17.0757 151.108 16.557L147.99 13.3916C146.704 12.0864 147.414 9.81279 149.19 9.54397L153.5 8.89176C154.205 8.78487 154.815 8.32344 155.131 7.65776L157.057 3.59148C157.852 1.91421 160.147 1.91415 160.943 3.59142Z" fill="#FFAE43"/>
<path d="M188.943 3.59142L190.87 7.65811C191.186 8.32385 191.795 8.78524 192.501 8.89211L196.81 9.54432C198.587 9.81315 199.296 12.0868 198.01 13.392L194.891 16.557C194.381 17.0753 194.148 17.8221 194.268 18.5539L195.004 23.0235C195.308 24.8664 193.451 26.2714 191.862 25.4016L188.008 23.2925C187.377 22.9468 186.623 22.9468 185.992 23.2925L182.137 25.403C180.549 26.2728 178.691 24.8662 178.995 23.0249L179.731 18.5553C179.852 17.823 179.619 17.0757 179.108 16.557L175.99 13.3916C174.704 12.0864 175.414 9.81279 177.19 9.54397L181.5 8.89176C182.205 8.78487 182.815 8.32344 183.131 7.65776L185.057 3.59148C185.852 1.91421 188.147 1.91415 188.943 3.59142Z" fill="#FFAE43"/>
<path d="M216.943 3.59142L218.87 7.65811C219.186 8.32385 219.795 8.78524 220.501 8.89211L224.81 9.54432C226.587 9.81315 227.296 12.0868 226.01 13.392L222.891 16.557C222.381 17.0753 222.148 17.8221 222.268 18.5539L223.004 23.0235C223.308 24.8664 221.451 26.2714 219.862 25.4016L216.008 23.2925C215.377 22.9468 214.623 22.9468 213.992 23.2925L210.137 25.403C208.549 26.2728 206.691 24.8662 206.995 23.0249L207.731 18.5553C207.852 17.823 207.619 17.0757 207.108 16.557L203.99 13.3916C202.704 12.0864 203.414 9.81279 205.19 9.54397L209.5 8.89176C210.205 8.78487 210.815 8.32344 211.131 7.65776L213.057 3.59148C213.852 1.91421 216.147 1.91415 216.943 3.59142Z" fill="#DAE0E6"/>
</svg>
